<svg width="20" height="20" viewBox="0 0 20 20" fill="none" xmlns="http://www.w3.org/2000/svg">
<g clip-path="url(#clip0_3_30)">
<path d="M2.75075 2.33407C2.52064 2.33407 2.33409 2.52062 2.33409 2.75074C2.33409 2.98085 2.52064 3.1674 2.75075 3.1674V2.75074V2.33407ZM4.41742 2.75074L4.83286 2.71878C4.81616 2.5017 4.63514 2.33407 4.41742 2.33407V2.75074ZM17.7507 5.25073L18.1649 5.29675C18.178 5.17895 18.1403 5.06116 18.0612 4.97285C17.9822 4.88454 17.8693 4.83407 17.7507 4.83407V5.25073ZM4.60973 5.25073L4.19429 5.28269V5.28269L4.60973 5.25073ZM6.90412 13.466L6.87444 13.0504L6.90412 13.466ZM2.75075 2.75074V3.1674H4.41742V2.75074V2.33407H2.75075V2.75074ZM6.90412 13.466L6.93381 13.8816L15.5626 13.2652L15.533 12.8496L15.5033 12.434L6.87444 13.0504L6.90412 13.466ZM17.0707 11.3712L17.4848 11.4173L18.1649 5.29675L17.7507 5.25073L17.3366 5.20472L16.6566 11.3252L17.0707 11.3712ZM4.41742 2.75074L4.00198 2.78269L4.19429 5.28269L4.60973 5.25073L5.02517 5.21878L4.83286 2.71878L4.41742 2.75074ZM4.60973 5.25073L4.19429 5.28269L4.70818 11.9633L5.12362 11.9314L5.53906 11.8994L5.02517 5.21878L4.60973 5.25073ZM17.7507 5.25073V4.83407H4.60973V5.25073V5.6674H17.7507V5.25073ZM15.533 12.8496L15.5626 13.2652C16.5653 13.1936 17.3738 12.4163 17.4848 11.4173L17.0707 11.3712L16.6566 11.3252C16.59 11.9247 16.1049 12.391 15.5033 12.434L15.533 12.8496ZM6.90412 13.466L6.87444 13.0504C6.1885 13.0994 5.59181 12.5851 5.53906 11.8994L5.12362 11.9314L4.70818 11.9633C4.79609 13.1061 5.79057 13.9632 6.93381 13.8816L6.90412 13.466Z" fill="#292929"/>
<rect x="7.58482" y="17.5848" width="0.00833333" height="0.00833333" stroke="#292929" stroke-width="1.21942" stroke-linejoin="round"/>
<rect x="15.0849" y="17.5848" width="0.00833333" height="0.00833333" stroke="#292929" stroke-width="1.21942" stroke-linejoin="round"/>
</g>
<defs>
<clipPath id="clip0_3_30">
<rect width="19.5108" height="19.5108" fill="white" transform="scale(1.02507)"/>
</clipPath>
</defs>
</svg>
